<svg xmlns="http://www.w3.org/2000/svg" viewBox="0 0 32 32" width="32" height="32" style="image-rendering:pixelated;shape-rendering:crispEdges">
  <!-- Base green fill -->
  <rect width="32" height="32" fill="#5a9e28"/>

  <!-- Row 0 highlights -->
  <rect x="0"  y="0" width="3" height="2" fill="#6bba32"/>
  <rect x="7"  y="0" width="4" height="2" fill="#6bba32"/>
  <rect x="14" y="0" width="3" height="2" fill="#72c438"/>
  <rect x="20" y="0" width="5" height="2" fill="#6bba32"/>
  <rect x="29" y="0" width="3" height="2" fill="#72c438"/>

  <!-- Row 0 darks -->
  <rect x="4"  y="0" width="2" height="1" fill="#488020"/>
  <rect x="12" y="0" width="2" height="1" fill="#488020"/>
  <rect x="26" y="0" width="2" height="1" fill="#488020"/>

  <!-- Row 2-3 -->
  <rect x="2"  y="3" width="5" height="2" fill="#6bba32"/>
  <rect x="10" y="2" width="3" height="2" fill="#72c438"/>
  <rect x="17" y="3" width="4" height="2" fill="#6bba32"/>
  <rect x="24" y="2" width="3" height="2" fill="#72c438"/>
  <rect x="30" y="3" width="2" height="2" fill="#6bba32"/>
  <rect x="0"  y="2" width="1" height="2" fill="#6bba32"/>

  <!-- Row 4-5 darks + mids -->
  <rect x="5"  y="4" width="2" height="1" fill="#488020"/>
  <rect x="13" y="5" width="3" height="1" fill="#488020"/>
  <rect x="22" y="4" width="2" height="1" fill="#488020"/>
  <rect x="28" y="5" width="2" height="1" fill="#4a8420"/>

  <!-- Row 6-7 -->
  <rect x="1"  y="6" width="4" height="2" fill="#6bba32"/>
  <rect x="8"  y="7" width="5" height="2" fill="#72c438"/>
  <rect x="16" y="6" width="3" height="2" fill="#6bba32"/>
  <rect x="22" y="6" width="5" height="2" fill="#72c438"/>
  <rect x="29" y="7" width="3" height="2" fill="#6bba32"/>

  <!-- Row 8-9 -->
  <rect x="3"  y="8" width="2" height="1" fill="#488020"/>
  <rect x="14" y="9" width="2" height="1" fill="#488020"/>
  <rect x="20" y="8" width="1" height="1" fill="#488020"/>
  <rect x="27" y="9" width="3" height="1" fill="#488020"/>

  <!-- Row 9-10 highlights -->
  <rect x="0"  y="10" width="6" height="2" fill="#6bba32"/>
  <rect x="9"  y="9"  width="3" height="2" fill="#72c438"/>
  <rect x="15" y="10" width="4" height="2" fill="#6bba32"/>
  <rect x="22" y="9"  width="4" height="2" fill="#72c438"/>
  <rect x="29" y="10" width="3" height="2" fill="#6bba32"/>

  <!-- Row 12-13 -->
  <rect x="2"  y="12" width="3" height="2" fill="#72c438"/>
  <rect x="7"  y="13" width="5" height="2" fill="#6bba32"/>
  <rect x="14" y="12" width="4" height="2" fill="#72c438"/>
  <rect x="20" y="13" width="3" height="2" fill="#6bba32"/>
  <rect x="25" y="12" width="5" height="2" fill="#72c438"/>
  <rect x="0"  y="13" width="1" height="2" fill="#72c438"/>

  <!-- Row 14-15 darks -->
  <rect x="5"  y="14" width="1" height="1" fill="#488020"/>
  <rect x="12" y="15" width="2" height="1" fill="#488020"/>
  <rect x="19" y="14" width="1" height="1" fill="#488020"/>
  <rect x="30" y="15" width="2" height="1" fill="#488020"/>

  <!-- Row 15-16 -->
  <rect x="1"  y="16" width="5" height="2" fill="#6bba32"/>
  <rect x="8"  y="15" width="3" height="2" fill="#72c438"/>
  <rect x="15" y="16" width="5" height="2" fill="#6bba32"/>
  <rect x="23" y="15" width="4" height="2" fill="#72c438"/>
  <rect x="29" y="16" width="3" height="2" fill="#6bba32"/>

  <!-- Row 18-19 -->
  <rect x="3"  y="18" width="2" height="1" fill="#488020"/>
  <rect x="11" y="19" width="3" height="1" fill="#488020"/>
  <rect x="18" y="18" width="2" height="1" fill="#488020"/>
  <rect x="26" y="19" width="3" height="1" fill="#488020"/>

  <!-- Row 19-20 highlights -->
  <rect x="0"  y="20" width="4" height="2" fill="#6bba32"/>
  <rect x="6"  y="19" width="4" height="2" fill="#72c438"/>
  <rect x="13" y="20" width="5" height="2" fill="#6bba32"/>
  <rect x="20" y="19" width="4" height="2" fill="#72c438"/>
  <rect x="27" y="20" width="5" height="2" fill="#6bba32"/>

  <!-- Row 22-23 -->
  <rect x="2"  y="22" width="3" height="2" fill="#72c438"/>
  <rect x="7"  y="23" width="5" height="2" fill="#6bba32"/>
  <rect x="16" y="22" width="3" height="2" fill="#72c438"/>
  <rect x="22" y="23" width="4" height="2" fill="#6bba32"/>
  <rect x="29" y="22" width="3" height="2" fill="#72c438"/>
  <rect x="0"  y="23" width="1" height="2" fill="#6bba32"/>

  <!-- Row 24-25 darks -->
  <rect x="5"  y="24" width="1" height="1" fill="#488020"/>
  <rect x="13" y="25" width="2" height="1" fill="#488020"/>
  <rect x="21" y="24" width="1" height="1" fill="#488020"/>
  <rect x="28" y="25" width="3" height="1" fill="#488020"/>

  <!-- Row 25-26 highlights -->
  <rect x="1"  y="26" width="4" height="2" fill="#6bba32"/>
  <rect x="8"  y="25" width="5" height="2" fill="#72c438"/>
  <rect x="15" y="26" width="4" height="2" fill="#6bba32"/>
  <rect x="23" y="25" width="4" height="2" fill="#72c438"/>
  <rect x="30" y="26" width="2" height="2" fill="#6bba32"/>

  <!-- Row 28-29 -->
  <rect x="3"  y="28" width="3" height="2" fill="#72c438"/>
  <rect x="9"  y="29" width="4" height="2" fill="#6bba32"/>
  <rect x="17" y="28" width="4" height="2" fill="#72c438"/>
  <rect x="24" y="29" width="3" height="2" fill="#6bba32"/>
  <rect x="0"  y="29" width="2" height="3" fill="#72c438"/>

  <!-- Row 30-31 darks -->
  <rect x="6"  y="30" width="2" height="1" fill="#488020"/>
  <rect x="14" y="31" width="3" height="1" fill="#488020"/>
  <rect x="22" y="30" width="1" height="1" fill="#488020"/>
  <rect x="29" y="31" width="3" height="1" fill="#488020"/>
</svg>
